<svg width="200" height="200" viewBox="0 0 200 200" fill="none" xmlns="http://www.w3.org/2000/svg">
<path d="M41.415 99.0063V122.44H37.5098C33.9148 122.44 31.0002 119.526 31 115.931V105.516C31 101.921 33.9147 99.0063 37.5098 99.0063H41.415ZM162.49 99.0063C166.085 99.0063 169 101.921 169 105.516V115.931C169 119.526 166.085 122.44 162.49 122.44H158.585V99.0063H162.49Z" fill="#FF1545"/>
<path d="M139.057 67.7607C148.404 67.7608 155.981 75.3384 155.981 84.6855V136.761C155.981 146.108 148.404 153.686 139.057 153.686H60.9434C51.5962 153.686 44.0186 146.108 44.0186 136.761V84.6855C44.0186 75.3384 51.5962 67.7607 60.9434 67.7607H139.057ZM77.2168 97.7041C69.6673 97.7042 63.5469 103.824 63.5469 111.374C63.5472 118.923 69.6675 125.044 77.2168 125.044C84.7663 125.044 90.8864 118.923 90.8867 111.374C90.8867 103.824 84.7664 97.7041 77.2168 97.7041ZM122.784 97.7041C115.235 97.7042 109.114 103.824 109.114 111.374C109.115 118.923 115.235 125.044 122.784 125.044C130.334 125.044 136.454 118.923 136.454 111.374C136.454 103.824 130.334 97.7042 122.784 97.7041Z" fill="white"/>
<path d="M97.3311 35.645C98.7607 34.5906 100.785 35.5859 100.822 37.3618L101.044 47.9194L105.046 44.9683C105.734 44.461 106.626 44.319 107.437 44.5884L116.674 47.6577C118.36 48.2179 118.713 50.446 117.283 51.5005L101.446 63.1821C100.873 63.6046 100.131 63.722 99.4551 63.4976L86.4033 59.1616C86.3553 59.1457 86.319 59.1156 86.293 59.0796C86.2624 59.0428 86.2414 58.9965 86.2402 58.9419L85.9512 45.1919C85.9362 44.4801 86.268 43.805 86.8408 43.3823L97.3311 35.645Z" fill="#FF1545"/>
</svg>
